<?xml version="1.0" encoding="UTF-8"?>
<svg xmlns="http://www.w3.org/2000/svg" version="1.1" viewBox="0 0 229 141.7">
  <defs>
    <style>
      .cls-1 {
        fill: #e85298;
      }
    </style>
  </defs>
  <!-- Generator: Adobe Illustrator 28.7.1, SVG Export Plug-In . SVG Version: 1.2.0 Build 142)  -->
  <g>
    <g id="_レイヤー_1" data-name="レイヤー_1">
      <g>
        <path class="cls-1" d="M142.7,94.9c-3.4,0-8.4,2.5-14.3,5.3-9.5,4.7-21.4,10.5-35.5,10.5s-13.3-2.1-17.9-6.7c-2.4-2.4-3.6-5.2-3.6-8.3,0-8.3,10.3-8.3,14.7-8.3,34,0,75.1-25.4,75.1-57s-2.5-14.7-7.4-19.6c-7.1-7.1-19.5-10.9-35.8-10.9C63.4,0,2.8,35.4,0,92.6c-.5,12.6,3.1,23,10.8,31,11.2,11.7,31.3,18.2,56.5,18.2s34.1-3.4,53.2-10.9c10.5-4.3,32.2-13.2,32.2-26.8s-1.1-4.1-2.9-5.9c-2-2-4.7-3.2-7.2-3.2ZM95.8,20.3c7.1,0,10.1,6.4,10.6,12,.3,4.3-.7,9-2.6,13.7.7-6.5-2.6-12.2-7.6-13.1-5.3-.9-10.7,3.9-11.9,10.9-1.2,6.9,2.1,13.3,7.5,14.3,2.3.4,4.7-.3,6.6-1.8-1.9,2.9-3.9,5.5-6,7.7-2.9,3.1-8.7,8.4-14.2,8.4s-4.3-.8-5.8-2.3c-2.8-2.8-3.1-7.2-3.1-8.9,0-9.8,9.7-40.8,26.4-40.8Z"/>
        <path class="cls-1" d="M223.7,25.1h-12.8c-1.6-.2-2.7-1.6-2.4-3.3l2.2-12.5c.6-3.5-1.7-6.3-5.2-6.3h-1.7c-3.5,0-6.8,2.8-7.4,6.3l-2.2,12.5c-.3,1.7-1.8,3.1-3.5,3.3h-12.9c-3.5,0-6.8,2.8-7.4,6.3l-.3,1.7c-.6,3.5,1.7,6.3,5.2,6.3h12.5c1.7,0,2.9,1.3,2.8,3l-2.2,12.7c-.6,3.5,1.7,6.3,5.2,6.3h1.7c3.5,0,6.8-2.8,7.4-6.3l2.2-12.4c.3-1.8,2.1-3.3,3.9-3.3h12.4c3.5,0,6.8-2.8,7.4-6.3l.3-1.7c.6-3.5-1.7-6.3-5.2-6.3Z"/>
      </g>
    </g>
  </g>
</svg>