<svg width="275" height="61" viewBox="0 0 275 61" fill="none" xmlns="http://www.w3.org/2000/svg">
<g clip-path="url(#clip0_1987_2819)">
<path d="M177.186 25.9355H185.198C185.718 25.9355 187.506 25.9355 187.506 28.3479C187.506 30.3899 186.207 30.6902 185.198 30.6902H177.066C176.786 33.593 176.137 36.4358 173.62 39.3387C172.511 40.5999 169.703 43.2325 167.825 43.2325C166.227 43.2325 165.178 41.7511 165.178 40.5799C165.178 39.5289 165.727 39.1285 166.966 38.3277C169.064 36.9363 171.562 34.9344 172.141 30.7002H162.5C161.422 30.7002 160.193 30.3298 160.193 28.3579C160.193 25.9455 162.011 25.9455 162.5 25.9455H172.301V22.9526C170.113 23.3229 166.996 23.8835 165.368 23.8835C163.43 23.8835 162.93 22.2819 162.93 21.321C162.93 19.4992 164.289 19.349 165.707 19.1889C170.453 18.6684 174.029 18.0778 177.386 17.0267C180.093 16.1659 180.403 16.0658 180.872 16.0658C182.411 16.0658 183.18 17.6073 183.18 18.6584C183.18 19.7995 182.321 20.3 180.872 20.7904C179.913 21.1308 178.405 21.5612 177.206 21.8715V25.9455L177.186 25.9355Z" fill="#8529CD"/>
<path d="M197.276 26.5159C195.368 29.669 193.8 32.2615 192.071 32.2615C190.743 32.2615 189.454 31.1805 189.454 29.8191C189.454 29.0784 189.704 28.7381 190.753 27.3467C193.25 24.0735 194.759 21.2006 196.177 17.5871C196.487 16.8464 196.857 15.8554 198.305 15.8554C198.705 15.8554 201.053 16.0356 201.053 17.9575C201.053 18.8884 200.193 20.7702 199.754 21.7512H213.93C215.968 21.7512 216.338 23.1426 216.338 24.1335C216.338 25.1245 215.938 26.5059 213.93 26.5059H208.355C208.236 32.9022 206.507 36.4156 204.499 38.9481C203.24 40.5797 200.273 43.4826 198.425 43.4826C197.037 43.4826 195.778 42.2513 195.778 40.7999C195.778 39.9691 196.117 39.5687 197.406 38.5777C201.322 35.6148 203.141 32.2215 203.26 26.5059H197.286L197.276 26.5159Z" fill="#8529CD"/>
<path d="M220.783 23.4931C221.832 23.4931 222.172 24.0837 222.971 25.435C224.57 28.1177 224.849 28.8584 224.849 29.449C224.849 30.6802 223.551 31.4609 222.472 31.4609C221.483 31.4609 221.303 31.1506 220.224 29.0786C220.004 28.6482 219.055 27.1067 218.685 26.426C218.505 26.0556 218.406 25.6853 218.406 25.465C218.406 24.0437 220.104 23.4931 220.783 23.4931ZM234.77 36.8362C230.953 41.651 225.589 43.4427 224.51 43.4427C223.431 43.4427 222.412 42.2716 222.412 41.0304C222.412 39.9193 222.841 39.699 224.819 38.8082C227.746 37.5069 233.231 34.6741 234.829 25.6853C235.199 23.6132 235.509 22.7224 237.077 22.7224C238.276 22.7224 239.485 23.373 239.485 24.6943C239.485 26.1157 238.226 32.4419 234.77 36.8262V36.8362ZM226.977 22.0117C227.996 22.0117 228.426 22.5722 229.385 24.3239C229.934 25.3149 230.923 27.2268 230.923 28.0576C230.923 29.479 229.505 30.0996 228.616 30.0996C227.537 30.0996 227.287 29.6392 226.368 27.6572C225.998 26.8864 225.539 25.9856 225.009 25.0947C224.859 24.8144 224.639 24.354 224.639 23.9536C224.639 22.7224 225.938 22.0117 226.977 22.0117Z" fill="#8529CD"/>
<path d="M248.146 41.1805C248.146 41.8912 248.116 43.683 245.619 43.683C243.121 43.683 243.061 42.1414 243.061 41.1805V18.1478C243.061 17.4071 243.061 15.6454 245.619 15.6454C248.176 15.6454 248.146 17.3771 248.146 18.1478V24.1638C251.903 25.8354 255.629 27.5571 259.056 29.8393C260.165 30.5801 260.844 31.2307 260.844 32.2217C260.844 33.583 259.795 35.0345 258.376 35.0345C257.577 35.0345 257.018 34.6941 255.359 33.583C253.231 32.1917 250.184 30.5601 248.146 29.6592V41.1705V41.1805Z" fill="#8529CD"/>
<path d="M125.317 46.8161H41.779L48.4325 53.4826L125.317 46.8161Z" fill="#8529CD"/>
<path d="M49.5114 19.8495V20.8605C47.9629 19.8695 46.5643 19.299 44.6662 19.299C38.8119 19.299 34.3663 24.6442 34.3663 31.2107C34.3663 37.7772 38.8119 43.1224 44.6662 43.1224C46.5743 43.1224 47.9629 42.5519 49.5114 41.5609V42.5719H54.6563V19.8595H49.5114V19.8495ZM44.6662 37.647C41.779 37.647 39.6711 34.8042 39.6711 31.2007C39.6711 27.5971 41.789 24.7543 44.6662 24.7543C47.5433 24.7543 49.5913 27.6072 49.5913 31.2007C49.5913 34.7942 47.5533 37.647 44.6662 37.647Z" fill="#8529CD"/>
<path d="M90.731 19.8495V33.1926C90.731 35.6951 89.0126 37.8072 86.5151 37.8072C84.0176 37.8072 82.2992 35.6951 82.2992 33.1926V19.8495H77.1543V33.1926C77.1543 38.668 80.8906 43.1224 86.3553 43.1224C88.8828 43.1224 90.731 41.721 90.731 41.721V42.5619H95.8759V19.8495H90.731Z" fill="#8529CD"/>
<path d="M138.674 42.5619V29.2187C138.674 26.7163 140.392 24.6042 142.89 24.6042C145.387 24.6042 147.106 26.7163 147.106 29.2187V42.5619H152.251V29.2187C152.251 23.7434 148.514 19.289 143.05 19.289C140.522 19.289 138.674 20.6904 138.674 20.6904V19.8495H133.529V42.5619H138.674Z" fill="#8529CD"/>
<path d="M19.5408 42.5619V33.7632H23.3471L29.9406 42.5619H36.674L28.7118 31.9414C31.1894 30.1597 32.8178 27.2568 32.8178 23.9636C32.8178 18.5683 28.4321 14.184 23.0474 14.184H14.1561V42.5619H19.5408ZM19.5408 19.5793H23.0474C25.465 19.5793 27.4431 21.5512 27.4431 23.9736C27.4431 26.396 25.465 28.3779 23.0474 28.3779H19.5408V19.5793Z" fill="#8529CD"/>
<path d="M109.742 37.1866C109.283 37.4969 108.693 37.7471 108.024 37.7471C107.185 37.7471 105.596 37.1065 105.596 34.9644V25.2448H109.992V19.8495H105.596V14.194H100.451V19.8495H97.7341V25.2448H100.451V35.0445C100.451 40.1195 104.268 43.1424 108.104 43.1424C109.532 43.1424 111.521 42.672 113.139 41.711L109.752 37.1866H109.742Z" fill="#8529CD"/>
<path d="M67.4538 30.49L76.2752 19.8495H69.0622L62.8883 27.7573V12.3121H57.5935V42.5619H62.8883V33.2327L70.4809 42.5619H77.6938L67.4538 30.49Z" fill="#8529CD"/>
<path d="M121.631 19.269C115.676 19.269 111.401 24.5141 111.401 31.2007C111.401 38.2376 116.765 43.1324 122.14 43.1324C124.857 43.1324 128.334 42.2015 131.251 38.0474L126.706 35.4148C123.189 40.6099 117.335 37.9673 116.656 32.7822H131.471C132.74 24.6242 127.475 19.2589 121.621 19.2589L121.631 19.269ZM126.126 28.2678H116.855C117.934 22.9526 125.117 22.6423 126.126 28.2678Z" fill="#8529CD"/>
</g>
<defs>
<clipPath id="clip0_1987_2819">
<rect width="275" height="61" fill="white"/>
</clipPath>
</defs>
</svg>
