<svg xmlns="http://www.w3.org/2000/svg" xmlns:xlink="http://www.w3.org/1999/xlink" version="1.1" id="レイヤー_1" x="0px" y="0px" viewBox="0 0 238.4 81.3" style="enable-background:new 0 0 238.4 81.3;" xml:space="preserve">
<style type="text/css">
	.st0{fill:#3CE032;}
	.st1{fill:none;}
</style>
<g>
	<g>
		<path class="st0" d="M112.7,26.1c0,0,0,30.1,0,31.2c0,2.8-2.2,5-5,5H96.9c-2.8,0-5-2.2-5-5c0-1,0-31.2,0-31.2H73.3v32.7    c0,13.4,8.6,20.4,21.2,20.4h15.7c12.7,0,21.2-7,21.2-20.4V26.1H112.7z"/>
		<path class="st0" d="M217.8,26.1c0,0,0,30.1,0,31.2c0,2.8-2.2,5-5,5H202c-2.8,0-5-2.2-5-5c0-1,0-31.2,0-31.2h-18.6v32.7    c0,13.4,8.6,20.4,21.2,20.4h15.7c12.7,0,21.2-7,21.2-20.4V26.1H217.8z"/>
		<rect x="145.6" y="2" class="st0" width="18.6" height="77.3"/>
		<path class="st0" d="M38.8,26.1c0,0-9.7,0-11.9,0c-4.2,0-6.3,1.1-6.3,1.1V2H1.9v77.3h18.6V48.1c0-2.8,2.2-5,5-5h10.8    c2.8,0,5,2.2,5,5v31.2h18.6V45.7C60,31.6,50.6,26.1,38.8,26.1z"/>
	</g>
</g>
<polyline class="st1" points="289.6,-51.7 289.6,133 -51.3,133 "/>
</svg>