<svg xmlns="http://www.w3.org/2000/svg" width="181.059" height="39.89" viewBox="0 0 181.059 39.89"><g transform="translate(3616 11027)"><g transform="translate(-3616 -11027)"><g transform="translate(0 11.916)"><path d="M194.114,419.946v-14.97h-3.331v18.151h2.273c6.855,0,9.486-4.692,9.486-9.082v-.232h-3.131v.232c0,3.041-1.882,5.9-5.155,5.9Z" transform="translate(-159.048 -404.031)"/><path d="M132.989,407.11a6.158,6.158,0,0,0-5.932-4.236h-.419a6.167,6.167,0,0,0-5.938,4.236,17.4,17.4,0,0,0-.519,5.514v.544a17.383,17.383,0,0,0,.519,5.511,6.169,6.169,0,0,0,5.938,4.239h.419a6.16,6.16,0,0,0,5.932-4.239,17.371,17.371,0,0,0,.519-5.511v-.544A17.39,17.39,0,0,0,132.989,407.11Zm-9.432,1.391a3.188,3.188,0,0,1,3.081-2.5h.419a3.2,3.2,0,0,1,2.991,2.173l-6.7,5.624c0-.226,0-.439,0-.628v-.544A23.636,23.636,0,0,1,123.557,408.5Zm6.58,8.789a3.194,3.194,0,0,1-3.08,2.5h-.419a3.189,3.189,0,0,1-2.987-2.169l6.7-5.623c0,.224,0,.434,0,.623v.544A23.577,23.577,0,0,1,130.137,417.29Z" transform="translate(-120.181 -402.874)"/><path d="M156.181,408.311h12.5v-3.335h-12.5Zm0,6.02h4.687v2.2a3.178,3.178,0,0,1-3.4,3.476h-.218v3.125h.293a6.277,6.277,0,0,0,6.451-6.524V414.33h4.689v-3.336h-12.5Z" transform="translate(-139.999 -404.031)"/></g><path d="M365.829,420.788v-4.277a7.1,7.1,0,0,0-7.2-7.2h-4.848v4.723h4.258a2.975,2.975,0,0,1,3.07,3.07v3.687h-7.328v4.723h15.206v-4.723Z" transform="translate(-248.778 -394.5)"/><path d="M254.961,389.223H242.1v-12.86H236.81v12.86H223.95v5.292h12.86v12.86H242.1v-12.86h12.859Z" transform="translate(-177.307 -376.364)"/><path d="M275.705,376.465a4.968,4.968,0,1,0,4.968,4.968A4.968,4.968,0,0,0,275.705,376.465Zm0,6.707a1.739,1.739,0,1,1,1.739-1.739A1.739,1.739,0,0,1,275.705,383.172Z" transform="translate(-203.064 -376.419)" fill="#00942c"/><circle cx="4.968" cy="4.968" r="4.968" transform="matrix(0.851, -0.526, 0.526, 0.851, 44.818, 24.383)" fill="#dc000c"/><circle cx="4.968" cy="4.968" r="4.968" transform="matrix(0.851, -0.526, 0.526, 0.851, 65.803, 24.384)" fill="#0064b6"/><circle cx="4.434" cy="4.434" r="4.434" transform="translate(81.955 11.269)" fill="#da2a80"/><circle cx="4.434" cy="4.434" r="4.434" transform="translate(81.955 22.097)" fill="#ffaf00"/><path d="M401.021,410.221V390.345h-5.079v24.726h3.466c10.453,0,14.464-7.154,14.464-13.848v-.354H409.1v.354c0,4.637-2.87,9-7.862,9Z" transform="translate(-271.99 -384.061)"/><g transform="translate(82.014 14.809)"><path d="M307.65,434.391h-5.009v-5.077h5.009a9.279,9.279,0,0,0,9.268-9.269V409.31H322v10.735A14.362,14.362,0,0,1,307.65,434.391Z" transform="translate(-302.641 -409.31)"/></g></g><path d="M-11.277.264v-2.78h-2.679V-4.37h2.679V-8.3a22.858,22.858,0,0,1-1.7,2.258,26.607,26.607,0,0,1-2,2.114,18.044,18.044,0,0,1-2.089,1.71A7.293,7.293,0,0,0-17.747-3a4.843,4.843,0,0,0-.775-.674A13.192,13.192,0,0,0-16.8-4.892,20.9,20.9,0,0,0-15.051-6.5a24.1,24.1,0,0,0,1.6-1.82,18.558,18.558,0,0,0,1.3-1.845h-5.627v-1.82h6.5v-3.1h1.971v3.1h6.52v1.82H-8.413A16.78,16.78,0,0,0-7.1-8.3,23.433,23.433,0,0,0-5.482-6.484,20.356,20.356,0,0,0-3.738-4.909a14.941,14.941,0,0,0,1.71,1.2,4.843,4.843,0,0,0-.775.674,7.877,7.877,0,0,0-.691.809A21.43,21.43,0,0,1-5.608-3.965a23.57,23.57,0,0,1-2-2.1,24.592,24.592,0,0,1-1.7-2.266V-4.37H-6.56v1.853H-9.306V.264ZM4.358.247V-6H7.576v-5.375H3.364v3.5a21.149,21.149,0,0,1-.43,4.482A12.061,12.061,0,0,1,1.628.1,9.658,9.658,0,0,0,.752-.318,6.615,6.615,0,0,0-.191-.646,12.591,12.591,0,0,0,1-3.847a18.325,18.325,0,0,0,.4-4.044V-13.2H7.155v-1.9H9.311v1.9H15.36v1.82H9.716v1.87H14.77V-7.79H9.716V-6h4.178V.247ZM6.329-1.472h5.594V-4.3H6.329Z" transform="translate(-3450.301 -10995.898)"/></g></svg>